<?xml version="1.0" standalone="no"?>
<!DOCTYPE svg PUBLIC "-//W3C//DTD SVG 20010904//EN"
 "http://www.w3.org/TR/2001/REC-SVG-20010904/DTD/svg10.dtd">
<svg version="1.0" xmlns="http://www.w3.org/2000/svg"
 width="1280.000000pt" height="720.000000pt" viewBox="0 0 1280.000000 720.000000"
 preserveAspectRatio="xMidYMid meet">

<g transform="translate(0.000000,720.000000) scale(0.100000,-0.100000)"
fill="#000000" stroke="none">
<path d="M9371 5144 c-64 -32 -105 -86 -120 -155 -15 -70 -15 -2708 0 -2778
15 -69 56 -123 120 -155 l53 -26 1390 0 c1379 0 1391 1 1436 21 56 25 86 53
113 104 l22 40 0 1405 0 1405 -22 40 c-27 51 -57 79 -113 104 -45 20 -57 21
-1436 21 l-1390 0 -53 -26z m684 -434 c132 -57 194 -228 129 -358 -45 -90
-143 -152 -239 -152 -91 0 -196 63 -236 143 -27 52 -35 143 -19 202 14 51 84
136 132 161 68 35 158 37 233 4z m1450 -695 c161 -29 275 -110 336 -240 69
-145 79 -252 79 -817 l0 -458 -230 0 -230 0 0 413 c0 226 -4 440 -9 474 -14
94 -51 166 -102 200 -39 26 -50 28 -138 28 -84 0 -102 -3 -141 -25 -53 -30
-103 -99 -121 -167 -8 -33 -13 -186 -16 -485 l-4 -438 -230 0 -229 0 0 745 0
745 220 0 220 0 0 -100 c0 -55 4 -100 9 -100 5 0 19 15 30 34 32 51 102 111
172 146 113 58 234 72 384 45z m-1325 -770 l0 -745 -235 0 -235 0 0 745 0 745
235 0 235 0 0 -745z"/>
<path d="M1733 4724 c-104 -38 -176 -144 -175 -258 1 -74 20 -123 70 -178 108
-120 306 -118 406 5 66 81 83 204 41 288 -24 48 -83 107 -130 131 -52 27 -155
33 -212 12z"/>
<path d="M0 3600 l0 -1110 690 0 690 0 0 225 0 225 -445 0 -445 0 -2 883 -3
882 -242 3 -243 2 0 -1110z"/>
<path d="M4000 3600 l0 -1110 235 0 235 0 2 371 3 372 248 -372 247 -371 290
0 c160 0 290 3 290 8 0 4 -133 186 -295 405 l-295 398 103 117 c57 64 173 196
257 292 84 96 173 196 197 222 24 26 43 52 43 58 0 7 -89 9 -282 8 l-283 -3
-260 -301 -260 -301 -3 659 -2 658 -235 0 -235 0 0 -1110z"/>
<path d="M8317 4703 c-4 -3 -7 -196 -7 -428 l0 -421 -51 48 c-98 92 -238 138
-418 138 -195 0 -326 -54 -461 -190 -103 -102 -167 -217 -207 -368 -35 -132
-37 -354 -5 -477 68 -254 229 -430 467 -511 107 -36 300 -46 390 -19 99 28
193 82 261 148 l63 62 3 -95 3 -95 213 -3 212 -2 0 1110 0 1110 -228 0 c-126
0 -232 -3 -235 -7z m-236 -1087 c110 -25 189 -90 238 -196 23 -49 26 -67 26
-170 0 -104 -3 -121 -27 -172 -37 -79 -96 -140 -171 -174 -56 -26 -73 -29
-167 -29 -99 0 -109 2 -172 33 -80 39 -139 101 -169 181 -29 74 -32 231 -6
306 61 176 248 268 448 221z"/>
<path d="M6170 4033 c-458 -69 -746 -427 -700 -871 36 -341 255 -590 599 -679
76 -19 122 -25 221 -25 160 -1 242 17 385 87 86 41 127 69 188 125 42 39 77
75 77 80 0 5 -66 57 -147 116 -82 59 -154 112 -160 117 -9 7 -33 -9 -82 -56
-90 -85 -153 -111 -271 -111 -70 0 -95 4 -141 26 -79 36 -134 89 -169 163 -50
105 -104 95 506 95 l536 0 -4 173 c-5 149 -9 184 -32 260 -82 273 -254 439
-508 491 -70 14 -232 20 -298 9z m174 -344 c98 -24 196 -140 196 -230 l0 -39
-300 0 -300 0 0 28 c1 62 78 175 144 209 79 41 176 53 260 32z"/>
<path d="M3067 4015 c-109 -30 -239 -119 -277 -191 -14 -26 -15 -23 -20 72
l-5 99 -225 0 -225 0 0 -750 0 -750 233 -3 232 -2 0 367 c1 447 8 544 50 629
38 77 84 111 173 127 133 22 230 -27 273 -139 16 -44 19 -94 24 -514 l5 -465
233 -3 232 -2 0 478 c0 495 -6 598 -41 717 -29 97 -53 140 -113 203 -58 62
-137 105 -228 127 -77 18 -255 18 -321 0z"/>
<path d="M1592 3248 l3 -753 233 -3 232 -2 0 755 0 755 -235 0 -235 0 2 -752z"/>
<path d="M12490 2645 c0 -9 9 -15 25 -15 24 0 25 -2 25 -71 0 -52 3 -70 13
-67 7 3 13 29 15 71 3 59 5 67 22 67 11 0 20 7 20 15 0 12 -13 15 -60 15 -47
0 -60 -3 -60 -15z"/>
<path d="M12632 2579 c2 -55 7 -84 16 -87 9 -3 12 13 12 55 l1 58 22 -54 c13
-30 28 -56 34 -58 6 -2 19 20 29 48 l19 53 5 -49 c3 -27 11 -50 18 -53 9 -3
12 18 12 82 0 78 -2 86 -19 86 -11 0 -23 -9 -27 -22 -3 -12 -13 -37 -21 -57
l-15 -36 -22 55 c-16 41 -28 56 -44 58 -22 3 -23 1 -20 -79z"/>
</g>
</svg>
